<svg width="180" height="180" viewBox="0 0 180 180" fill="none" xmlns="http://www.w3.org/2000/svg">
<circle cx="90" cy="90" r="90" fill="#27262B"/>
<circle opacity="0.8" cx="90" cy="90" r="68" fill="#35333D"/>
<g clip-path="url(#clip0_1_1976)">
<path d="M89.5332 87.4333C84.2366 86.0567 82.5332 84.6333 82.5332 82.4167C82.5332 79.8733 84.8899 78.1 88.8332 78.1C92.9866 78.1 94.5266 80.0833 94.6666 83H99.8232C99.6599 78.9867 97.2099 75.3 92.3332 74.11V69H85.3332V74.04C80.8066 75.02 77.1666 77.96 77.1666 82.4633C77.1666 87.8533 81.6232 90.5367 88.1332 92.1C93.9666 93.5 95.1332 95.5533 95.1332 97.7233C95.1332 99.3333 93.9899 101.9 88.8332 101.9C84.0266 101.9 82.1366 99.7533 81.8799 97H76.7466C77.0266 102.11 80.8532 104.98 85.3332 105.937V111H92.3332V105.983C96.8832 105.12 100.5 102.483 100.5 97.7C100.5 91.0733 94.8299 88.81 89.5332 87.4333Z" fill="#B153E0"/>
</g>
<defs>
<clipPath id="clip0_1_1976">
<rect width="56" height="56" fill="white" transform="translate(62 62)"/>
</clipPath>
</defs>
</svg>
