<svg width="14" height="8" viewBox="0 0 14 8" fill="none" xmlns="http://www.w3.org/2000/svg">
<path d="M10.0916 0.675004C9.86413 0.447504 9.49662 0.447504 9.26912 0.675004L5.97912 3.965L6.80162 4.7875L10.0916 1.49167C10.3133 1.27 10.3133 0.89667 10.0916 0.675004ZM12.565 0.66917L6.80162 6.4325L4.77163 4.40834C4.54413 4.18084 4.17662 4.18084 3.94912 4.40834C3.72162 4.63584 3.72162 5.00334 3.94912 5.23084L6.38746 7.66917C6.61496 7.89667 6.98246 7.89667 7.20996 7.66917L13.3875 1.4975C13.615 1.27 13.615 0.902504 13.3875 0.675004H13.3816C13.16 0.44167 12.7925 0.44167 12.565 0.66917ZM0.653291 5.23667L3.09162 7.675C3.31912 7.9025 3.68662 7.9025 3.91412 7.675L4.32246 7.26667L1.47579 4.40834C1.24829 4.18084 0.880791 4.18084 0.653291 4.40834C0.425791 4.63584 0.425791 5.00917 0.653291 5.23667Z" fill="white"/>
</svg>
