<svg width="180" height="180" viewBox="0 0 180 180" fill="none" xmlns="http://www.w3.org/2000/svg">
<circle cx="90" cy="90" r="90" fill="#27262B"/>
<circle opacity="0.8" cx="90" cy="90" r="68" fill="#35333D"/>
<g clip-path="url(#clip0_1_1958)">
<path d="M69 102.25V111H77.75L103.557 85.1933L94.8067 76.4433L69 102.25ZM75.8133 106.333H73.6667V104.187L94.8067 83.0467L96.9533 85.1933L75.8133 106.333ZM110.323 75.1367L104.863 69.6767C104.397 69.21 103.813 69 103.207 69C102.6 69 102.017 69.2333 101.573 69.6767L97.3033 73.9467L106.053 82.6967L110.323 78.4267C111.233 77.5167 111.233 76.0467 110.323 75.1367V75.1367Z" fill="#B153E0"/>
</g>
<defs>
<clipPath id="clip0_1_1958">
<rect width="56" height="56" fill="white" transform="translate(62 62)"/>
</clipPath>
</defs>
</svg>
