<svg width="180" height="180" viewBox="0 0 180 180" fill="none" xmlns="http://www.w3.org/2000/svg">
<circle cx="90" cy="90" r="90" fill="#27262B"/>
<circle opacity="0.8" cx="90" cy="90" r="68" fill="#35333D"/>
<g clip-path="url(#clip0_1_1970)">
<path d="M101.55 85.8702L88.3434 99.0769C87.4334 99.9869 85.9634 99.9869 85.0534 99.0769L78.4501 92.4736C77.5401 91.5636 77.5401 90.0936 78.4501 89.1836C79.3601 88.2736 80.8301 88.2736 81.7401 89.1836L86.6867 94.1302L98.2367 82.5802C99.1467 81.6702 100.617 81.6702 101.527 82.5802C102.46 83.4902 102.46 84.9602 101.55 85.8702ZM71.3334 90.0002C71.3334 84.5636 73.7134 79.6869 77.4467 76.2802L81.0167 79.8502C81.7401 80.5736 83.0001 80.0602 83.0001 79.0102V69.0002C83.0001 68.3469 82.4867 67.8336 81.8334 67.8336H71.8234C70.7734 67.8336 70.2601 69.0936 71.0067 69.8169L74.1334 72.9669C69.5601 77.2136 66.6667 83.2569 66.6667 90.0002C66.6667 101.084 74.4134 110.37 84.7734 112.75C86.2434 113.077 87.6667 111.98 87.6667 110.464C87.6667 109.367 86.8967 108.434 85.8234 108.177C77.5401 106.287 71.3334 98.8669 71.3334 90.0002ZM113.333 90.0002C113.333 78.9169 105.587 69.6302 95.2267 67.2502C93.7567 66.9236 92.3334 68.0202 92.3334 69.5369C92.3334 70.6336 93.1034 71.5669 94.1767 71.8236C102.46 73.7136 108.667 81.1336 108.667 90.0002C108.667 95.4369 106.287 100.314 102.553 103.72L98.9834 100.15C98.2601 99.4269 97.0001 99.9402 97.0001 100.99V111C97.0001 111.654 97.5134 112.167 98.1667 112.167H108.177C109.227 112.167 109.74 110.907 108.993 110.184L105.867 107.034C110.44 102.787 113.333 96.7436 113.333 90.0002Z" fill="#B153E0"/>
</g>
<defs>
<clipPath id="clip0_1_1970">
<rect width="56" height="56" fill="white" transform="translate(62 62)"/>
</clipPath>
</defs>
</svg>
