<svg width="20" height="13" viewBox="0 0 20 13" fill="none" xmlns="http://www.w3.org/2000/svg">
<path d="M10 0.25C5.83337 0.25 2.27504 2.84167 0.833374 6.5C2.27504 10.1583 5.83337 12.75 10 12.75C14.1667 12.75 17.725 10.1583 19.1667 6.5C17.725 2.84167 14.1667 0.25 10 0.25ZM10 10.6667C7.70004 10.6667 5.83337 8.8 5.83337 6.5C5.83337 4.2 7.70004 2.33333 10 2.33333C12.3 2.33333 14.1667 4.2 14.1667 6.5C14.1667 8.8 12.3 10.6667 10 10.6667ZM10 4C8.61671 4 7.50004 5.11667 7.50004 6.5C7.50004 7.88333 8.61671 9 10 9C11.3834 9 12.5 7.88333 12.5 6.5C12.5 5.11667 11.3834 4 10 4Z" fill="white"/>
</svg>
