<svg width="180" height="180" viewBox="0 0 180 180" fill="none" xmlns="http://www.w3.org/2000/svg">
<circle cx="90" cy="90" r="90" fill="#27262B"/>
<circle opacity="0.8" cx="90" cy="90" r="68" fill="#35333D"/>
<g clip-path="url(#clip0_1_1964)">
<path d="M90.0001 66.667C77.1667 66.667 66.6667 77.167 66.6667 90.0003C66.6667 102.834 77.1667 113.334 90.0001 113.334C102.833 113.334 113.333 102.834 113.333 90.0003C113.333 77.167 102.833 66.667 90.0001 66.667ZM90.0001 108.667C79.7101 108.667 71.3334 100.29 71.3334 90.0003C71.3334 79.7103 79.7101 71.3337 90.0001 71.3337C100.29 71.3337 108.667 79.7103 108.667 90.0003C108.667 100.29 100.29 108.667 90.0001 108.667ZM91.1667 78.3337H87.6667V92.3337L99.8001 99.8003L101.667 96.767L91.1667 90.467V78.3337Z" fill="#B153E0"/>
</g>
<defs>
<clipPath id="clip0_1_1964">
<rect width="56" height="56" fill="white" transform="translate(62 62)"/>
</clipPath>
</defs>
</svg>
